<svg width="1024" height="384" viewBox="0 0 1024 384" fill="none" xmlns="http://www.w3.org/2000/svg">
<rect width="1024" height="384" rx="16" fill="#131820"/>
<rect x="368" y="126" width="289" height="100" rx="4" fill="white"/>
<path d="M406 205L426.16 175.4L407.28 148.36H420L433.36 169.32L446.56 148.36H458.8L440.24 175.4L460.8 205H448L433.04 181.08L418.16 205H406ZM467.086 205V148.36H504.606V157.48H477.166V171.4H503.166V180.52H477.166V195.88H506.046V205H467.086ZM515.992 205V148.36H535.672C546.552 148.36 556.792 151.88 556.792 164.6C556.792 172.76 552.072 178.76 543.672 179.96L558.712 205H546.552L533.432 181H526.072V205H515.992ZM526.072 172.36H533.912C539.592 172.36 546.232 171.88 546.232 164.52C546.232 157.8 539.992 157 534.792 157H526.072V172.36ZM563.343 176.92C563.343 158.76 575.823 146.92 593.263 146.92C610.943 146.6 623.423 158.44 623.423 176.6C623.423 194.28 610.943 206.12 593.263 206.44C575.823 206.44 563.343 194.6 563.343 176.92ZM573.903 176.28C573.903 188.36 581.663 197.32 593.343 197.32C605.103 197.32 612.863 188.36 612.863 176.28C612.863 165 605.103 156.04 593.343 156.04C581.663 156.04 573.903 165 573.903 176.28Z" fill="#131820"/>
<path d="M460.112 259V242.008H465.296C468.104 242.008 470.936 243.064 470.936 246.184C470.936 248.152 469.784 249.472 467.96 250.024V250.072C470.144 250.264 471.8 252.016 471.8 254.248C471.8 257.992 468.32 259 465.176 259H460.112ZM462.128 243.88V249.208H464.912C466.808 249.208 468.776 248.8 468.776 246.448C468.776 244.36 466.952 243.88 465.128 243.88H462.128ZM462.128 251.08V257.128H465.536C467.504 257.128 469.64 256.336 469.64 254.176C469.64 251.8 467.624 251.08 465.584 251.08H462.128ZM484.685 247.768V256.336C484.685 257.368 484.781 258.256 484.781 259H483.005C483.005 258.4 482.957 257.776 482.957 257.152H482.909C482.405 258.256 481.013 259.288 479.165 259.288C476.213 259.288 474.893 257.416 474.893 254.704V247.768H476.765V254.512C476.765 256.384 477.581 257.56 479.333 257.56C481.757 257.56 482.813 255.808 482.813 253.24V247.768H484.685ZM488.397 259V247.768H490.269V259H488.397ZM487.965 243.376C487.965 242.632 488.565 242.008 489.333 242.008C490.101 242.008 490.701 242.632 490.701 243.376C490.701 244.168 490.125 244.744 489.333 244.744C488.541 244.744 487.965 244.168 487.965 243.376ZM494.163 259V240.856H496.035V259H494.163ZM509.096 259V257.008H509.048C508.352 258.28 506.744 259.288 504.728 259.288C501.584 259.288 499.112 256.744 499.112 253.384C499.112 249.976 501.488 247.48 505.016 247.48C506.648 247.48 508.016 248.2 509.048 249.4H509.096V240.856H510.968V259H509.096ZM509.096 253.384C509.096 251.032 507.536 249.208 505.112 249.208C502.688 249.208 501.128 251.032 501.128 253.384C501.128 255.736 502.688 257.56 505.112 257.56C507.536 257.56 509.096 255.736 509.096 253.384ZM519.864 257.2L521.352 256.048C522.096 256.96 522.912 257.56 524.232 257.56C525.408 257.56 526.704 257.056 526.704 255.832C526.704 254.632 525.504 254.32 524.304 254.056C522.168 253.576 520.344 253.12 520.344 250.792C520.344 248.608 522.456 247.48 524.544 247.48C526.128 247.48 527.592 248.08 528.36 249.52L526.8 250.552C526.32 249.76 525.528 249.208 524.424 249.208C523.392 249.208 522.216 249.712 522.216 250.768C522.216 251.704 523.56 252.112 525.048 252.4C527.04 252.784 528.72 253.504 528.72 255.76C528.72 258.304 526.464 259.288 524.232 259.288C522.336 259.288 520.968 258.784 519.864 257.2ZM537.475 247.768V249.352H534.163V254.968C534.163 256.408 534.187 257.56 535.843 257.56C536.395 257.56 536.995 257.44 537.499 257.176L537.571 258.88C536.923 259.168 536.083 259.288 535.387 259.288C532.723 259.288 532.291 257.848 532.291 255.52V249.352H529.843V247.768H532.291V244.576H534.163V247.768H537.475ZM549.56 247.768V256.336C549.56 257.368 549.656 258.256 549.656 259H547.88C547.88 258.4 547.832 257.776 547.832 257.152H547.784C547.28 258.256 545.888 259.288 544.04 259.288C541.088 259.288 539.768 257.416 539.768 254.704V247.768H541.64V254.512C541.64 256.384 542.456 257.56 544.208 257.56C546.632 257.56 547.688 255.808 547.688 253.24V247.768H549.56ZM554.064 259V249.352H551.616V247.768H554.064V245.248C554.064 242.512 555.024 240.568 558.048 240.568C558.528 240.568 559.128 240.664 559.488 240.856L559.224 242.536C558.816 242.392 558.384 242.296 557.952 242.296C556.008 242.296 555.936 243.712 555.936 245.656V247.768H558.672V249.352H555.936V259H554.064ZM561.213 259V249.352H558.765V247.768H561.213V245.248C561.213 242.512 562.173 240.568 565.197 240.568C565.677 240.568 566.277 240.664 566.637 240.856L566.373 242.536C565.965 242.392 565.533 242.296 565.101 242.296C563.157 242.296 563.085 243.712 563.085 245.656V247.768H565.821V249.352H563.085V259H561.213Z" fill="white"/>
</svg>
