<svg width="1024" height="240" viewBox="0 0 1024 240" fill="none" xmlns="http://www.w3.org/2000/svg">
<rect width="1024" height="240" rx="16" fill="#131820"/>
<path d="M321.04 105V48.36H337.84C348.24 48.36 357.68 52.04 357.68 63.88C357.68 76.28 347.12 79.56 339.12 79.56H327.76V105H321.04ZM327.76 54.6V73.32H339.12C345.84 73.32 350.48 70.28 350.48 63.96C350.48 57.64 345.84 54.6 339.12 54.6H327.76ZM368.462 105V48.36H382.942C393.902 48.36 405.502 49.96 405.502 63.96C405.502 72.2 400.142 77.56 391.342 78.92L407.422 105H399.182L383.822 79.56H375.182V105H368.462ZM375.182 54.6V73.32H381.182C388.622 73.32 398.302 73.32 398.302 63.96C398.302 55.8 391.182 54.6 384.622 54.6H375.182ZM443.688 106.44C426.488 106.44 414.088 93.8 414.088 76.68C414.088 59.56 426.488 46.92 443.688 46.92C460.888 46.92 473.288 59.56 473.288 76.68C473.288 93.8 460.888 106.44 443.688 106.44ZM443.688 100.2C456.968 100.2 466.088 89.72 466.088 76.68C466.088 63.64 456.968 53.16 443.688 53.16C430.408 53.16 421.288 63.64 421.288 76.68C421.288 89.72 430.408 100.2 443.688 100.2ZM508.567 48.36V90.36C508.567 97.96 504.487 106.44 492.407 106.44C484.407 106.44 478.727 102.36 477.287 94.28L484.007 92.92C484.887 97.4 487.767 100.2 492.487 100.2C500.167 100.2 501.847 94.2 501.847 88.04V48.36H508.567ZM522.681 105V48.36H558.281V54.6H529.401V72.36H556.361V78.6H529.401V98.76H559.721V105H522.681ZM615.623 55.8L609.783 60.04C606.423 55.48 601.063 53.16 595.623 53.16C582.983 53.16 574.023 64.28 574.023 76.68C574.023 89.8 582.903 100.2 595.623 100.2C602.503 100.2 608.023 97.4 612.023 92.28L617.063 96.52C612.023 103.32 604.663 106.44 595.623 106.44C579.383 106.44 566.823 93.88 566.823 76.68C566.823 60.04 578.823 46.92 595.623 46.92C603.303 46.92 610.823 49.56 615.623 55.8ZM664.431 48.36V54.6H645.711V105H638.991V54.6H620.271V48.36H664.431ZM704.768 53.56L699.248 58.36C697.008 54.76 693.008 53.16 688.928 53.16C683.008 53.16 676.848 55.96 676.848 62.68C676.848 67.88 679.728 70.2 688.768 73.08C697.568 75.88 705.728 78.76 705.728 89.88C705.728 101.16 696.048 106.44 685.808 106.44C679.248 106.44 672.208 104.28 668.368 98.6L674.128 93.88C676.528 98.04 681.328 100.2 686.208 100.2C691.968 100.2 698.528 96.84 698.528 90.36C698.528 83.4 693.808 82.2 683.728 78.84C675.728 76.2 669.648 72.68 669.648 63.24C669.648 52.36 679.008 46.92 688.928 46.92C695.248 46.92 700.608 48.68 704.768 53.56Z" fill="white"/>
<g filter="url(#filter0_b_401_76)">
<rect x="312" y="129" width="400" height="64" rx="4" fill="#262F3D"/>
</g>
<g clip-path="url(#clip0_401_76)">
<path d="M349.516 145L333.6 160.916L338.526 165.842L359.368 145H349.516Z" fill="white"/>
<path d="M349.405 159.677L340.883 168.199L345.828 173.218L350.745 168.3L359.369 159.677H349.405Z" fill="white"/>
<path d="M345.828 173.218L349.571 176.961H359.368L350.745 168.301L345.828 173.218Z" fill="#C7D9DE"/>
<path d="M340.828 168.254L345.754 163.328L350.745 168.3L345.828 173.217L340.828 168.254Z" fill="#E8F3F7"/>
</g>
<g clip-path="url(#clip1_401_76)">
<path d="M411.071 161V145H443.071V177H411.071" fill="white"/>
<path d="M418.087 161.056V162.36H422.247V174.2H425.199V162.36H429.359V161.08C429.359 160.36 429.359 159.776 429.327 159.76C429.327 159.736 426.791 159.728 423.711 159.728L418.111 159.752V161.064L418.087 161.056ZM436.783 159.72C437.599 159.912 438.223 160.28 438.783 160.864C439.079 161.184 439.519 161.744 439.551 161.888C439.551 161.936 438.167 162.872 437.327 163.392C437.295 163.416 437.167 163.28 437.039 163.072C436.623 162.48 436.199 162.224 435.535 162.176C434.575 162.112 433.935 162.616 433.935 163.456C433.935 163.712 433.983 163.856 434.079 164.064C434.295 164.504 434.695 164.768 435.935 165.312C438.223 166.296 439.215 166.944 439.815 167.872C440.495 168.912 440.647 170.544 440.191 171.768C439.679 173.104 438.431 174.008 436.647 174.304C436.087 174.4 434.807 174.384 434.207 174.28C432.927 174.04 431.703 173.4 430.951 172.576C430.655 172.256 430.087 171.4 430.119 171.344L430.423 171.152L431.623 170.456L432.527 169.928L432.735 170.208C432.999 170.624 433.591 171.184 433.935 171.376C434.975 171.912 436.367 171.84 437.055 171.216C437.351 170.944 437.479 170.656 437.479 170.256C437.479 169.888 437.423 169.72 437.239 169.44C436.983 169.088 436.471 168.8 435.031 168.16C433.375 167.456 432.671 167.008 432.015 166.32C431.639 165.904 431.295 165.256 431.135 164.72C431.015 164.256 430.975 163.12 431.087 162.664C431.431 161.064 432.639 159.944 434.367 159.624C434.927 159.512 436.247 159.56 436.799 159.704L436.783 159.72Z" fill="#686F76"/>
</g>
<g clip-path="url(#clip2_401_76)">
<path d="M523.096 154.413C523.096 153.877 522.981 153.402 522.749 152.995C522.521 152.595 522.179 152.26 521.721 151.995C517.941 149.815 514.156 147.641 510.377 145.459C509.358 144.871 508.37 144.893 507.359 145.489C505.854 146.377 498.32 150.693 496.075 151.993C495.151 152.529 494.701 153.348 494.701 154.412C494.699 158.796 494.701 163.18 494.699 167.564C494.699 168.089 494.809 168.554 495.031 168.955C495.259 169.367 495.606 169.712 496.074 169.983C498.319 171.283 505.854 175.599 507.359 176.487C508.37 177.084 509.358 177.105 510.377 176.517C514.157 174.335 517.941 172.162 521.722 169.982C522.191 169.711 522.537 169.366 522.765 168.954C522.987 168.553 523.097 168.088 523.097 167.563C523.097 167.563 523.097 158.797 523.096 154.413Z" fill="white"/>
<path d="M508.942 160.946L495.031 168.955C495.259 169.367 495.606 169.712 496.074 169.983C498.319 171.283 505.854 175.599 507.359 176.487C508.37 177.084 509.358 177.105 510.377 176.517C514.157 174.335 517.941 172.162 521.722 169.982C522.191 169.711 522.537 169.366 522.765 168.954L508.942 160.946Z" fill="#DCE4EC"/>
<path d="M504.822 163.318C505.631 164.731 507.153 165.684 508.898 165.684C510.655 165.684 512.185 164.719 512.99 163.291L508.942 160.946L504.822 163.318Z" fill="#DCE4EC"/>
<path d="M523.096 154.413C523.096 153.877 522.981 153.403 522.749 152.996L508.942 160.946L522.766 168.954C522.987 168.553 523.097 168.088 523.097 167.563C523.097 167.563 523.097 158.797 523.096 154.413Z" fill="#E2ECF5"/>
<path d="M522.336 161.518H521.255V162.598H520.175V161.518H519.095V160.438H520.175V159.358H521.255V160.438H522.336V161.518Z" fill="#68666C"/>
<path d="M518.394 161.518H517.314V162.598H516.234V161.518H515.153V160.438H516.234V159.358H517.314V160.438H518.394V161.518Z" fill="#68666C"/>
<path d="M512.99 163.291C512.185 164.719 510.655 165.684 508.898 165.684C507.153 165.684 505.631 164.731 504.822 163.318C504.428 162.631 504.202 161.836 504.202 160.988C504.202 158.395 506.305 156.292 508.898 156.292C510.633 156.292 512.146 157.233 512.96 158.632L517.064 156.269C515.433 153.452 512.387 151.558 508.898 151.558C503.69 151.558 499.468 155.78 499.468 160.988C499.468 162.697 499.922 164.299 500.717 165.681C502.344 168.512 505.399 170.419 508.898 170.419C512.404 170.419 515.464 168.505 517.089 165.665L512.99 163.291Z" fill="#68666C"/>
</g>
<g clip-path="url(#clip3_401_76)">
<path d="M590.843 145.001L574.77 161.887V176.989L590.813 160.92L606.773 144.993L590.843 145.001Z" fill="white"/>
<path d="M574.77 176.993L590.813 160.923L606.773 176.993H574.77Z" fill="#FCFEFF"/>
<path d="M574.77 145H590.843L574.77 161.887V145Z" fill="white"/>
</g>
<g clip-path="url(#clip4_401_76)">
<path d="M674.263 145.009C666.16 145.009 666.666 148.537 666.666 148.537L666.675 152.192H674.407V153.29H663.603C663.603 153.29 658.418 152.699 658.418 160.908C658.418 169.118 662.944 168.826 662.944 168.826H665.645V165.017C665.645 165.017 665.499 160.473 670.098 160.473H677.768C677.768 160.473 682.077 160.543 682.077 156.292V149.263C682.077 149.263 682.731 145.009 674.263 145.009ZM669.999 147.467C670.182 147.467 670.363 147.503 670.532 147.573C670.7 147.643 670.854 147.746 670.983 147.876C671.112 148.006 671.215 148.16 671.285 148.329C671.354 148.499 671.39 148.68 671.39 148.864C671.39 149.047 671.354 149.229 671.285 149.399C671.215 149.568 671.112 149.722 670.983 149.852C670.854 149.982 670.7 150.084 670.532 150.155C670.363 150.225 670.182 150.261 669.999 150.261C669.816 150.261 669.635 150.225 669.466 150.155C669.298 150.084 669.144 149.982 669.015 149.852C668.886 149.722 668.783 149.568 668.713 149.399C668.644 149.229 668.608 149.047 668.608 148.864C668.608 148.68 668.644 148.499 668.713 148.329C668.783 148.16 668.886 148.006 669.015 147.876C669.144 147.746 669.298 147.643 669.466 147.573C669.635 147.503 669.816 147.467 669.999 147.467Z" fill="white"/>
<path d="M674.493 176.89C682.596 176.89 682.09 173.362 682.09 173.362L682.081 169.707H674.348V168.61H685.152C685.152 168.61 690.338 169.2 690.338 160.991C690.338 152.782 685.812 153.073 685.812 153.073H683.111V156.882C683.111 156.882 683.256 161.426 678.657 161.426H670.988C670.988 161.426 666.679 161.356 666.679 165.607V172.636C666.679 172.636 666.024 176.89 674.493 176.89H674.493ZM678.757 174.432C678.574 174.433 678.393 174.397 678.224 174.326C678.055 174.256 677.902 174.153 677.773 174.024C677.643 173.894 677.541 173.74 677.471 173.57C677.401 173.401 677.365 173.219 677.366 173.036C677.365 172.852 677.401 172.67 677.471 172.501C677.541 172.331 677.643 172.177 677.773 172.048C677.902 171.918 678.055 171.815 678.224 171.745C678.393 171.675 678.574 171.639 678.757 171.639C678.939 171.639 679.12 171.675 679.289 171.745C679.458 171.815 679.612 171.918 679.741 172.048C679.87 172.177 679.972 172.331 680.042 172.501C680.112 172.67 680.148 172.852 680.148 173.036C680.148 173.219 680.112 173.401 680.042 173.57C679.972 173.74 679.87 173.894 679.741 174.024C679.612 174.153 679.458 174.256 679.289 174.326C679.12 174.396 678.939 174.433 678.757 174.432Z" fill="#FCFEFF"/>
</g>
<defs>
<filter id="filter0_b_401_76" x="300" y="117" width="424" height="88" filterUnits="userSpaceOnUse" color-interpolation-filters="sRGB">
<feFlood flood-opacity="0" result="BackgroundImageFix"/>
<feGaussianBlur in="BackgroundImageFix" stdDeviation="6"/>
<feComposite in2="SourceAlpha" operator="in" result="effect1_backgroundBlur_401_76"/>
<feBlend mode="normal" in="SourceGraphic" in2="effect1_backgroundBlur_401_76" result="shape"/>
</filter>
<clipPath id="clip0_401_76">
<rect width="25.8423" height="32" fill="white" transform="translate(333.6 145)"/>
</clipPath>
<clipPath id="clip1_401_76">
<rect x="411.071" y="145" width="32" height="32" fill="white"/>
</clipPath>
<clipPath id="clip2_401_76">
<rect width="28.4444" height="32" fill="white" transform="translate(494.699 145)"/>
</clipPath>
<clipPath id="clip3_401_76">
<rect x="574.772" y="145" width="32" height="32" fill="white"/>
</clipPath>
<clipPath id="clip4_401_76">
<rect x="658.4" y="145" width="32" height="32" fill="white"/>
</clipPath>
</defs>
</svg>
